<?xml version="1.0" encoding="iso-8859-1"?>
<!-- Generator: Adobe Illustrator 19.0.0, SVG Export Plug-In . SVG Version: 6.00 Build 0)  -->
<svg version="1.1" id="Capa_1" xmlns="http://www.w3.org/2000/svg" xmlns:xlink="http://www.w3.org/1999/xlink" x="0px" y="0px"
	 viewBox="0 0 496 496" style="enable-background:new 0 0 496 496;" xml:space="preserve">
<path style="fill:#ECECEC;" d="M24,424V136c0-17.672,14.328-32,32-32h160h64h160c17.672,0,32,14.328,32,32v288H24z"/>
<path style="fill:#8C95A4;" d="M8,424h480v32c0,17.672-14.328,32-32,32H40c-17.672,0-32-14.328-32-32V424z"/>
<path style="fill:#39C3FC;" d="M56,424V144c0-4.416,3.584-8,8-8h152h64h152c4.416,0,8,3.584,8,8v280H56z"/>
<rect x="8" y="424" style="fill:#798699;" width="480" height="24"/>
<g>
	<path style="fill:#ECECEC;" d="M328,424v16c0,8.84-7.16,16-16,16H184c-8.84,0-16-7.16-16-16v-16H328z"/>
	<polygon style="fill:#ECECEC;" points="280,168 408,168 408,392 88,392 88,168 216,168 	"/>
</g>
<path style="fill:#8C95A4;" d="M216,40v224l21.192,56.512C238.88,325.016,243.184,328,248,328l0,0c4.816,0,9.12-2.984,10.808-7.488
	L280,264V40c0-17.672-14.328-32-32-32l0,0C230.328,8,216,22.328,216,40z"/>
<rect x="248" y="88" style="fill:#FB5968;" width="32" height="176"/>
<rect x="216" y="88" style="fill:#CD2C5A;" width="32" height="176"/>
<rect x="216" y="56" style="fill:#FFC729;" width="64" height="32"/>
<rect x="120" y="200" style="fill:#FB5968;" width="64" height="64"/>
<rect x="24" y="400" style="fill:#B6C1CE;" width="448" height="24"/>
<rect x="56" y="400" style="fill:#148CE0;" width="384" height="24"/>
<path d="M480,416V136c0-22.056-17.944-40-40-40H288V40c0-22.056-17.944-40-40-40s-40,17.944-40,40v56H56c-22.056,0-40,17.944-40,40
	v280H0v40c0,22.056,17.944,40,40,40h416c22.056,0,40-17.944,40-40v-40H480z M272,80h-48V64h48V80z M240,96v16h16V96h16v160h-16V128
	h-16v128h-16V96H240z M268.456,272l-17.136,45.704c-1.032,2.752-5.6,2.76-6.632-0.008L227.544,272H268.456z M229.696,323.312
	C232.536,330.896,239.896,336,248,336s15.464-5.104,18.304-12.68L288,265.456V176h112v208H96V176h112v89.456L229.696,323.312z
	 M248,16c13.232,0,24,10.768,24,24v8h-48v-8C224,26.768,234.768,16,248,16z M32,136c0-13.232,10.768-24,24-24h152v16H64
	c-8.824,0-16,7.176-16,16v256h16V144h144v16H80v240h336V160H288v-16h144v256h16V144c0-8.824-7.176-16-16-16H288v-16h152
	c13.232,0,24,10.768,24,24v280H32V136z M176,432h144v8c0,4.416-3.592,8-8,8H184c-4.408,0-8-3.584-8-8V432z M480,456
	c0,13.232-10.768,24-24,24H40c-13.232,0-24-10.768-24-24v-24h144v8c0,13.232,10.768,24,24,24h128c13.232,0,24-10.768,24-24v-8h144
	V456z"/>
<path d="M192,192h-80v80h80V192z M176,256h-48v-48h48V256z"/>
<rect x="304" y="192" width="80" height="16"/>
<rect x="304" y="224" width="80" height="16"/>
<rect x="304" y="256" width="80" height="16"/>
<rect x="112" y="288" width="80" height="16"/>
<rect x="304" y="288" width="80" height="16"/>
<rect x="288" y="320" width="96" height="16"/>
<rect x="112" y="320" width="96" height="16"/>
<rect x="368" y="352" width="16" height="16"/>
<rect x="112" y="352" width="240" height="16"/>
<rect x="32" y="448" width="16" height="16"/>
<rect x="64" y="448" width="16" height="16"/>
<rect x="96" y="448" width="16" height="16"/>
<g>
</g>
<g>
</g>
<g>
</g>
<g>
</g>
<g>
</g>
<g>
</g>
<g>
</g>
<g>
</g>
<g>
</g>
<g>
</g>
<g>
</g>
<g>
</g>
<g>
</g>
<g>
</g>
<g>
</g>
</svg>
